<svg width="673" height="562" viewBox="0 0 673 562" fill="none" xmlns="http://www.w3.org/2000/svg">
<path d="M0 553.12C0 553.12 24.9047 412.226 77.3182 386.862C224.768 315.563 436.659 337.151 554.328 382.039C637.946 413.94 672.272 561.971 672.272 561.971C672.272 561.971 494.28 553.12 317.323 553.12C140.366 553.12 -0.000106622 562.278 0 553.12Z" fill="#38241B"/>
<path d="M208.382 370.97C208.382 370.97 218.028 404.701 237.784 452.873C257.541 501.045 317.189 562 317.189 562C317.189 562 272.475 419.17 250.307 401.331C228.138 383.492 208.382 370.97 208.382 370.97Z" fill="#38241B"/>
<path d="M418.475 372.393C418.475 372.393 420.392 431.17 404.006 467.807C387.619 504.415 318.732 558.398 318.732 558.398C318.732 558.398 369.315 434.569 381.866 414.812C394.389 395.056 418.475 372.393 418.475 372.393Z" fill="#38241B"/>
<path d="M109.829 258.472C109.829 258.472 108.26 255.102 138.738 218.029C169.216 180.956 341.129 141.471 416.931 197.458C492.704 253.475 516.586 249.146 512.025 266.868C507.463 284.591 371.577 390.61 363.355 423.964C355.104 457.318 319.803 561.884 317.217 561.942C314.631 562 279.331 448.253 253.792 413.65C228.195 379.104 109.829 258.472 109.829 258.472Z" fill="#38241B"/>
<path d="M109.829 258.472C109.829 258.472 115.931 246.182 122.7 249.001C170.262 268.786 273.404 394.358 289.325 446.597C309.925 514.148 317.159 561.971 317.159 561.971C317.159 561.971 285.025 474.664 237.26 413.679C199.142 365.072 109.829 258.472 109.829 258.472Z" fill="#38241B"/>
<path d="M516.296 266.462C516.296 266.462 507.638 249.552 502.292 252.458C476.463 266.462 427.74 309.229 395.722 361.963C372.711 399.82 347.115 436.573 340.461 458.335C319.862 525.886 317.189 562 317.189 562C317.189 562 356.935 467.894 404.7 406.938C442.79 358.302 516.296 266.462 516.296 266.462Z" fill="#38241B"/>
<path d="M195.858 206.64C194.202 228.895 203.15 344.995 234.877 370.476C277.267 404.527 290.4 433.668 311.406 433.697C343.656 433.756 356.788 402.261 395.837 369.982C429.859 341.857 430.266 219.714 430.266 219.714C430.266 219.714 341.913 190.573 311.406 191.793C281.771 192.955 195.858 206.64 195.858 206.64Z" fill="#EEE1CA"/>
<path d="M299.177 238.367C300.282 231.074 290.403 211.376 268.525 208.18C246.648 204.984 206.175 232.614 206.175 235.171C206.175 237.757 202.95 244.178 213.875 238.396C224.799 232.614 253.824 217.681 266.666 222.097C279.508 226.513 282.878 244.265 285.929 244.265C289.009 244.236 298.364 243.771 299.177 238.367Z" fill="#38241B"/>
<path d="M335.318 238.367C334.214 231.074 344.092 211.376 365.97 208.18C387.848 204.984 428.32 232.614 428.32 235.171C428.32 237.757 431.516 244.178 420.621 238.396C409.696 232.614 382.066 219.918 369.224 224.334C356.382 228.75 353.506 244.817 350.426 244.817C347.346 244.788 336.131 243.771 335.318 238.367Z" fill="#38241B"/>
<path d="M109.831 258.472C106.983 257.688 176.335 70.3762 247.489 20.6647C288.252 -7.80834 364.141 -7.08199 401.214 24.2383C449.763 65.2336 518.767 260.68 516.297 266.462C513.827 272.215 437.096 207.047 311.088 203.822C182.582 200.509 118.895 260.942 109.831 258.472Z" fill="#38241B"/>
<path d="M321.284 17.0328C276.744 17.0328 238.16 162.303 228.921 210.155C251.699 205.681 278.865 202.979 311.086 203.821C344.992 204.693 374.162 209.226 398.829 215.24C391.072 164.308 381.048 17.0328 321.284 17.0328Z" fill="#38241B"/>
<path d="M219.916 297.201C219.916 297.201 231.509 354.263 268.523 351.736C299.611 349.615 300.948 331.834 303.679 335.669C306.381 339.533 326.051 339.765 317.189 344.443C314.051 346.099 311.088 357.256 302.546 361.353C286.944 368.907 267.71 371.405 252.631 366.059C220.497 354.728 213.088 298.48 219.916 297.201Z" fill="#38241B"/>
<path d="M416.697 297.201C416.697 297.201 405.105 354.263 368.09 351.736C337.002 349.615 335.666 331.834 332.935 335.669C330.233 339.533 310.563 339.765 319.424 344.443C322.562 346.099 325.555 357.256 334.068 361.353C349.67 368.907 368.904 371.405 383.983 366.059C416.116 354.728 423.525 298.48 416.697 297.201Z" fill="#38241B"/>
<path d="M230.229 253.446C230.229 253.446 233.832 255.16 243.333 253.068C252.834 250.976 263.7 252.342 274.973 258.647C286.246 264.951 282.992 267.944 282.992 267.944C282.992 267.944 270.208 270.849 258.325 269.803C246.442 268.728 226.598 252.836 230.229 253.446Z" fill="#38241B"/>
<path d="M408.245 254.521C408.245 254.521 404.642 256.235 395.141 254.143C385.641 252.052 374.804 253.417 363.502 259.722C352.229 266.027 355.454 269.019 355.454 269.019C355.454 269.019 368.237 271.925 380.149 270.879C392.033 269.833 411.877 253.911 408.245 254.521Z" fill="#38241B"/>
<path d="M345.546 316.988C345.546 316.988 347.609 328.435 339.677 329.655C331.775 330.846 329.479 333.868 324.831 336.919C323.088 338.081 321.228 338.488 319.63 338.575H314.691C313.064 338.488 311.233 338.081 309.49 336.919C304.842 333.868 302.546 330.875 294.644 329.655C286.741 328.435 288.775 316.988 288.775 316.988C283.138 322.13 285.433 329.917 296.474 333.723C307.544 337.529 304.173 342.933 312.018 344.24C314.284 344.618 315.911 344.618 317.131 344.473C318.381 344.618 320.008 344.618 322.245 344.24C330.09 342.962 326.719 337.558 337.789 333.723C348.917 329.946 351.183 322.13 345.546 316.988Z" fill="#38241B"/>
<path d="M330.144 379.163H317.389H312.13H299.376C299.376 379.163 305.884 383.637 306.726 389.419C307.569 395.201 300.335 398.571 302.281 408.682C304.228 418.793 307.104 431.751 314.774 431.751C320.905 431.751 325.321 418.793 327.268 408.682C329.185 398.571 321.98 395.201 322.793 389.419C323.636 383.637 330.144 379.163 330.144 379.163Z" fill="#38241B"/>
<path d="M272.998 355.949C274.916 357.227 299.699 365.595 317.19 366.234C334.68 366.873 368.121 361.091 368.121 361.091C368.121 361.091 336.859 373.294 314.575 373.294C292.261 373.294 272.998 355.949 272.998 355.949Z" fill="#38241B"/>
<path d="M160.208 391.685C162.126 394.59 186.211 403.249 206.462 453.367C226.684 503.485 205.503 542.011 205.503 542.011C205.503 542.011 192.981 469.724 185.253 449.503C177.553 429.252 160.208 391.685 160.208 391.685Z" fill="#38241B"/>
<path d="M510.021 397.467C501.333 415.771 488.811 430.24 482.071 478.412C475.33 526.613 477.248 543.958 477.248 543.958C477.248 543.958 493.634 497.704 505.198 470.713C516.761 443.721 510.021 397.467 510.021 397.467Z" fill="#38241B"/>
<path d="M486.896 547.299C486.896 547.299 509.529 481.782 517.257 463.449C524.957 445.145 542.796 424.923 542.796 424.923C542.796 424.923 542.302 452.844 537.508 473.095C532.685 493.346 522.08 511.65 522.08 511.65C522.08 511.65 541.837 501.539 545.701 485.152C549.566 468.766 553.401 452.379 553.401 452.379C553.401 452.379 561.565 482.479 553.401 500.551C539.891 530.448 486.896 547.299 486.896 547.299Z" fill="#38241B"/>
<path d="M311.089 203.821C401.68 206.146 466.79 240.459 497.151 257.455C475.826 240.691 443.547 220.876 400.634 210.039C316.784 188.83 254.637 193.652 195.861 213.409C162.245 224.711 139.612 238.803 129.269 249.262C157.945 232.992 217.186 201.41 311.089 203.821Z" fill="#563A30"/>
</svg>
